# xmcd CD database file
#
# Track frame offsets:
#	150
#	19625
#	39345
#	58425
#	82785
#	102010
#	122105
#	144440
#	165980
#	187415
#	202510
#	227710
#	248697
#	279890
#
# Disc length: 4153 seconds
#
# Revision: 0
# Processed by: cddbd v1.4PL0 Copyright (c) Steve Scherf et al.
# Submitted via: Feurio! 1.66 - http://www.feurio.com
#
DISCID=ac10370e
DTITLE=Bobby Womack - Only Survivor-The MCA Years
DYEAR=1900
DGENRE=Soul
TTITLE0=I Wish He Didn't Trust Me So Much
TTITLE1=Wanna Make Love To You
TTITLE2=That's Where It's At
TTITLE3=The Truth Song
TTITLE4=Let Me Kiss It Where It Hurts
TTITLE5=A Woman Likes To Hear That
TTITLE6=So Many Rivers
TTITLE7=A World Where No One Cries
TTITLE8=Living In A Box
TTITLE9=I Ain't Got To Love Nobody
TTITLE10=When The Weekend Comes
TTITLE11=Only Survivor
TTITLE12=Inherit The Wind
TTITLE13=No Matter How High I Get
EXTD=
EXTT0=
EXTT1=
EXTT2=
EXTT3=
EXTT4=
EXTT5=
EXTT6=
EXTT7=
EXTT8=
EXTT9=
EXTT10=
EXTT11=
EXTT12=
EXTT13=
PLAYORDER=
